<svg width="109" height="109" viewBox="0 0 109 109" fill="none" xmlns="http://www.w3.org/2000/svg">
<circle cx="54.5" cy="54.5" r="54.5" fill="#FFC326"/>
<path d="M51.7931 23.3524C52.4692 22.3382 52.1852 20.967 51.1619 20.3049L46.5966 17.3509C45.5929 16.7014 44.2536 16.9789 43.5904 17.9735L37.9375 26.4528L46.7789 30.8734L51.7931 23.3524Z" fill="black"/>
<path d="M59.5601 37.2654L63.6987 31.0575C64.3749 30.0433 64.0909 28.6721 63.0675 28.0099L58.5022 25.056C57.4985 24.4065 56.1592 24.684 55.4961 25.6786L50.7188 32.8447L59.5601 37.2654Z" fill="black"/>
<path d="M60.5527 48.2636L64.5556 50.0427C65.5286 50.475 66.6715 50.1435 67.262 49.2577L74.6655 38.1525C75.3416 37.1383 75.0576 35.7671 74.0342 35.105L70.4089 32.7591C69.4052 32.1096 68.066 32.3871 67.4028 33.3817L59.6215 45.0536C58.8702 46.1811 59.3147 47.7134 60.5527 48.2636Z" fill="black"/>
<path d="M85.0008 42.2005L81.3756 39.8548C80.3719 39.2053 79.0326 39.4828 78.3694 40.4774L71.731 50.4351C70.9796 51.5624 71.424 53.0948 72.662 53.645L76.665 55.424C77.6379 55.8564 78.7808 55.525 79.3714 54.6391L85.6321 45.2479C86.3082 44.234 86.0242 42.8628 85.0008 42.2005V42.2005Z" fill="black"/>
<path d="M77.553 59.9861C77.5527 59.9861 77.5528 59.9861 77.5526 59.9861C76.6302 59.9861 75.7344 59.7958 74.8905 59.4206L54.4645 50.3426H53.0832L62.2653 68.7065C62.8207 69.8176 62.3412 71.1754 61.1922 71.6839C60.116 72.1603 58.854 71.659 58.3277 70.6063L48.1957 50.3426H38.8448C37.6679 50.3426 36.6551 49.4381 36.5998 48.2625C36.5406 47.0072 37.5408 45.9711 38.783 45.9711H52.5888C53.3196 45.9711 54.0021 45.6057 54.4075 44.9977L55.7447 42.9917C56.4741 41.8978 56.0795 40.4123 54.9035 39.8243L37.2208 30.9829C36.2349 30.49 35.0361 30.8084 34.4247 31.7255L24.3671 46.812C23.8557 47.579 23.8806 48.5846 24.4294 49.3255L40.5394 71.0738C40.9284 71.599 41.062 72.2707 40.9035 72.9049L36.9065 88.8926C36.5616 90.2721 37.6051 91.6085 39.027 91.6085H72.0841C73.2912 91.6085 74.2698 90.6298 74.2698 89.4227V77.7565C74.2698 77.0269 74.6338 76.3455 75.2402 75.9399C75.2402 75.9399 75.7885 75.5731 76.5997 75.0322C80.1957 72.635 82.3426 68.6237 82.3426 64.3019V57.9044C81.1136 59.2218 79.3893 59.9861 77.553 59.9861V59.9861Z" fill="black"/>
</svg>
