<svg width="247" height="247" viewBox="0 0 247 247" fill="none" xmlns="http://www.w3.org/2000/svg">
<path d="M225.291 101.791H145.209V21.709C145.209 9.71935 135.49 0 123.5 0C111.51 0 101.791 9.71935 101.791 21.709V101.791H21.709C9.71935 101.791 0 111.51 0 123.5C0 135.49 9.71935 145.209 21.709 145.209H101.791V225.291C101.791 237.281 111.51 247 123.5 247C135.49 247 145.209 237.281 145.209 225.291V145.209H225.291C237.281 145.209 247 135.49 247 123.5C247 111.51 237.281 101.791 225.291 101.791Z" fill="white"/>
</svg>
